<svg width="24" height="24" stroke-width="0" viewBox="0 0 24 24" fill="current" xmlns="http://www.w3.org/2000/svg" type="solid" class="fill-color-teal-600"><path fill-rule="evenodd" clip-rule="evenodd" d="M6 3C5.20435 3 4.44129 3.31607 3.87868 3.87868C3.31607 4.44129 3 5.20435 3 6V18C3 18.7956 3.31596 19.5587 3.87862 20.1213C4.37092 20.6136 5.0167 20.9171 5.70349 20.9853C5.80157 20.9951 5.90051 21 5.99994 21H17.9999C18.1989 21 18.3958 20.9802 18.588 20.9418C19.1647 20.8266 19.6994 20.5433 20.1213 20.1213C20.5433 19.6994 20.8266 19.1647 20.9418 18.588C20.9802 18.3958 21 18.1989 21 18V6C21 5.20435 20.6839 4.44129 20.1213 3.87868C19.5587 3.31607 18.7956 3 18 3H6ZM13 8C13 7.44772 13.4477 7 14 7H14.01C14.5623 7 15.01 7.44772 15.01 8C15.01 8.55228 14.5623 9 14.01 9H14C13.4477 9 13 8.55228 13 8ZM5 16.5L9.293 12.207C9.48052 12.0196 9.73489 11.9142 10 11.9142C10.2651 11.9142 10.5195 12.0196 10.707 12.207L15.2929 16.7929C15.6834 17.1834 16.3166 17.1834 16.7071 16.7929C17.0976 16.4024 17.0976 15.7692 16.7071 15.3787L15.4142 14.0858L16.2931 13.2069C16.4806 13.0195 16.7349 12.9142 17 12.9142C17.2651 12.9142 17.5195 13.0196 17.707 13.207L19 14.5V18C19 18.2651 18.8946 18.5195 18.707 18.7071C18.5195 18.8946 18.2652 19 17.9999 19H5.99994C5.73472 19 5.48037 18.8946 5.29283 18.7071C5.10535 18.5196 5 18.2653 5 18V16.5Z" fill="inherit"></path></svg>