<svg width="24" height="24" stroke-width="0" viewBox="0 0 24 24" fill="current" xmlns="http://www.w3.org/2000/svg" class="fill-slate-400"><path fill-rule="evenodd" clip-rule="evenodd" d="M3.87868 3.87868C4.44129 3.31607 5.20435 3 6 3H18C18.7956 3 19.5587 3.31607 20.1213 3.87868C20.6839 4.44129 21 5.20435 21 6V13.999V14.001V18C21 18.7957 20.6839 19.5587 20.1213 20.1213C19.5587 20.6839 18.7957 21 18 21H6C5.20435 21 4.44129 20.6839 3.87868 20.1213C3.31607 19.5587 3 18.7956 3 18V16.0002V6C3 5.20435 3.31607 4.44129 3.87868 3.87868ZM5 16.5V18C5 18.2652 5.10536 18.5196 5.29289 18.7071C5.48043 18.8946 5.73478 19 6 19H18C18.2652 19 18.5196 18.8946 18.7071 18.7071C18.8946 18.5196 19 18.2652 19 18V14.5L17.707 13.207C17.5195 13.0196 17.2651 12.9142 17 12.9142C16.7349 12.9142 16.4806 13.0195 16.2931 13.2069L15.4142 14.0858L16.7071 15.3787C17.0976 15.7692 17.0976 16.4024 16.7071 16.7929C16.3166 17.1834 15.6834 17.1834 15.2929 16.7929L10.707 12.207C10.5195 12.0196 10.2651 11.9142 10 11.9142C9.73489 11.9142 9.48062 12.0195 9.29311 12.2069L5 16.5ZM14 12.6716L12.1211 10.7927C11.5585 10.2303 10.7955 9.91421 10 9.91421C9.20451 9.91421 8.44158 10.2302 7.879 10.7926L5 13.6716V6C5 5.73478 5.10536 5.48043 5.29289 5.29289C5.48043 5.10536 5.73478 5 6 5H18C18.2652 5 18.5196 5.10536 18.7071 5.29289C18.8946 5.48043 19 5.73478 19 6V11.6781C18.4515 11.1875 17.7398 10.9142 17 10.9142C16.2045 10.9142 15.4416 11.2302 14.879 11.7926L14 12.6716ZM13 8C13 7.44772 13.4477 7 14 7H14.01C14.5623 7 15.01 7.44772 15.01 8C15.01 8.55228 14.5623 9 14.01 9H14C13.4477 9 13 8.55228 13 8Z" fill="inherit"></path></svg>