<svg width="24" height="24" stroke-width="0" viewBox="0 0 24 24" fill="current" xmlns="http://www.w3.org/2000/svg" class="fill-slate-500 w-5 h-5"><path fill-rule="evenodd" clip-rule="evenodd" d="M11.7105 2C11.1269 2 10.5626 2.22616 10.1429 2.63603C9.72241 3.04668 9.48168 3.60876 9.48168 4.2V5.081C9.48168 5.8511 9.24202 6.45313 8.70554 7.1517L6.98522 9.3909C6.95407 9.43146 6.92261 9.47208 6.89106 9.51283C6.79113 9.64188 6.69013 9.7723 6.59499 9.90573C6.43439 9.81652 6.2657 9.74167 6.09165 9.6816C5.74159 9.56076 5.37108 9.5 5 9.5C4.62892 9.5 4.25841 9.56076 3.90835 9.6816C3.55835 9.80241 3.23 9.98293 2.9456 10.2199C2.66093 10.4572 2.42331 10.7487 2.25676 11.0838C2.08976 11.4197 2 11.7884 2 12.1667V19.3333C2 20.1055 2.3695 20.7999 2.9456 21.28C3.51639 21.7556 4.25733 21.9999 5 21.9999C5.74267 21.9999 6.48361 21.7556 7.0544 21.28C7.15661 21.1948 7.25231 21.1029 7.3406 21.005C7.52088 21.1423 7.71506 21.2621 7.9205 21.3624L7.98188 21.3923C8.84377 21.813 10.0667 21.9997 10.9236 22H17.24C18.0332 22.0002 18.805 21.7322 19.4237 21.237C20.0423 20.7419 20.4707 20.0491 20.6301 19.2737L20.6306 19.2709L21.931 13.0756L21.932 13.0707C22.0337 12.5742 22.0212 12.0616 21.8956 11.5706C21.7701 11.0796 21.5349 10.6237 21.2088 10.2353C20.8828 9.8469 20.4742 9.53581 20.0134 9.32283C19.5527 9.10988 19.0504 8.99986 18.5426 8.9998H15V5.1998C15 4.19458 14.5473 3.54265 13.9789 2.9875C13.3903 2.41277 12.6958 2 11.7105 2ZM6 18.3179C6 18.3171 6 18.3164 6 18.3156V12.1667C6 12.1072 5.9863 12.0424 5.95228 11.974C5.91781 11.9046 5.86079 11.8287 5.77403 11.7564C5.687 11.6838 5.57439 11.6188 5.43908 11.5721C5.30384 11.5255 5.15421 11.5 5 11.5C4.84579 11.5 4.69616 11.5255 4.56092 11.5721C4.42561 11.6188 4.31301 11.6838 4.22597 11.7564C4.13921 11.8287 4.08219 11.9046 4.04772 11.974C4.0137 12.0424 4 12.1072 4 12.1667V19.3333C4 19.4451 4.05193 19.5985 4.22597 19.7435C4.40533 19.893 4.6818 19.9999 5 19.9999C5.3182 19.9999 5.59467 19.893 5.77403 19.7435C5.94807 19.5985 6 19.4451 6 19.3333V18.3179ZM8 18.3169C8.00012 18.5717 8.07271 18.8235 8.21195 19.0436C8.35158 19.2643 8.55351 19.4458 8.79762 19.5649L8.85912 19.595C9.36087 19.8398 10.256 19.9997 10.9236 20H17.24C17.5835 20.0001 17.9137 19.8839 18.174 19.6755C18.4338 19.4675 18.6074 19.1819 18.6713 18.8699L18.6723 18.865L19.9726 12.6697L19.9731 12.6675C20.0135 12.4684 20.0084 12.2632 19.958 12.0661C19.9073 11.8681 19.812 11.6819 19.6771 11.5212C19.5421 11.3604 19.3707 11.2291 19.1743 11.1383C18.9777 11.0474 18.762 10.9998 18.5426 10.9998H13V5.1998C13 4.93199 12.9348 4.76342 12.5815 4.41839C12.2483 4.09295 12.0287 4 11.7105 4C11.6423 4 11.5814 4.02669 11.5403 4.06691C11.4999 4.10635 11.4817 4.15472 11.4817 4.2V5.081C11.4817 6.38799 11.0314 7.4068 10.2917 8.3699L8.57141 10.6091C8.20951 11.0803 8.12046 11.1967 8.06816 11.318C8.03833 11.3872 8 11.5066 8 12L8 18.3156C8 18.3161 8 18.3165 8 18.3169Z" fill="inherit"></path></svg>