<svg width="24" height="24" stroke-width="0" viewBox="0 0 24 24" fill="current" xmlns="http://www.w3.org/2000/svg" class=""><path fill-rule="evenodd" clip-rule="evenodd" d="M9 2C9.55228 2 10 2.44772 10 3V4H14V3C14 2.44772 14.4477 2 15 2C15.5523 2 16 2.44772 16 3V4H17C17.7956 4 18.5587 4.31607 19.1213 4.87868C19.6839 5.44129 20 6.20435 20 7V8H21C21.5523 8 22 8.44772 22 9C22 9.55228 21.5523 10 21 10H20V14H21C21.5523 14 22 14.4477 22 15C22 15.5523 21.5523 16 21 16H20V17C20 17.7957 19.6839 18.5587 19.1213 19.1213C18.5587 19.6839 17.7957 20 17 20H16V21C16 21.5523 15.5523 22 15 22C14.4477 22 14 21.5523 14 21V20H10V21C10 21.5523 9.55228 22 9 22C8.44772 22 8 21.5523 8 21V20H7C6.20435 20 5.44129 19.6839 4.87868 19.1213C4.31607 18.5587 4 17.7956 4 17V16H3C2.44772 16 2 15.5523 2 15C2 14.4477 2.44772 14 3 14H4V10H3C2.44772 10 2 9.55228 2 9C2 8.44772 2.44772 8 3 8H4V7C4 6.20435 4.31607 5.44129 4.87868 4.87868C5.44129 4.31607 6.20435 4 7 4H8V3C8 2.44772 8.44772 2 9 2ZM7 6C6.73478 6 6.48043 6.10536 6.29289 6.29289C6.10536 6.48043 6 6.73478 6 7V17C6 17.2652 6.10536 17.5196 6.29289 17.7071C6.48043 17.8946 6.73478 18 7 18H17C17.2652 18 17.5196 17.8946 17.7071 17.7071C17.8946 17.5196 18 17.2652 18 17V7C18 6.73478 17.8946 6.48043 17.7071 6.29289C17.5196 6.10536 17.2652 6 17 6H7ZM8 9C8 8.44772 8.44772 8 9 8H15C15.5523 8 16 8.44772 16 9V15C16 15.5523 15.5523 16 15 16H9C8.44772 16 8 15.5523 8 15V9ZM10 10V14H14V10H10Z" fill="inherit"></path></svg>