<svg width="24" height="24" stroke-width="0" viewBox="0 0 24 24" fill="current" xmlns="http://www.w3.org/2000/svg" class="fill-slate-900"><path fill-rule="evenodd" clip-rule="evenodd" d="M10.7071 4.2929C11.0976 4.68342 11.0976 5.31659 10.7071 5.70711L5.41423 10.9999H21C21.5523 10.9999 22 11.4477 22 11.9999C22 12.5522 21.5523 12.9999 21 12.9999H5.4142L10.7071 18.2929C11.0976 18.6834 11.0976 19.3166 10.7071 19.7071C10.3166 20.0976 9.68341 20.0976 9.29289 19.7071L2.29289 12.7071C2.10535 12.5195 2 12.2652 2 11.9999C2 11.7347 2.10536 11.4804 2.2929 11.2928L9.2929 4.29289C9.68342 3.90237 10.3166 3.90237 10.7071 4.2929Z" fill="inherit"></path></svg>