<svg width="24" height="24" stroke-width="0" viewBox="0 0 24 24" fill="current" xmlns="http://www.w3.org/2000/svg" class=""><path d="M9 11C8.44772 11 8 11.4477 8 12C8 12.5523 8.44772 13 9 13H9.01C9.56228 13 10.01 12.5523 10.01 12C10.01 11.4477 9.56228 11 9.01 11H9Z" fill="inherit"></path><path d="M12 11C11.4477 11 11 11.4477 11 12C11 12.5523 11.4477 13 12 13H15C15.5523 13 16 12.5523 16 12C16 11.4477 15.5523 11 15 11H12Z" fill="inherit"></path><path d="M9 15C8.44772 15 8 15.4477 8 16C8 16.5523 8.44772 17 9 17H9.01C9.56228 17 10.01 16.5523 10.01 16C10.01 15.4477 9.56228 15 9.01 15H9Z" fill="inherit"></path><path d="M12 15C11.4477 15 11 15.4477 11 16C11 16.5523 11.4477 17 12 17H15C15.5523 17 16 16.5523 16 16C16 15.4477 15.5523 15 15 15H12Z" fill="inherit"></path><path fill-rule="evenodd" clip-rule="evenodd" d="M11 2C10.2044 2 9.44129 2.31607 8.87868 2.87868C8.55928 3.19808 8.31933 3.5821 8.17157 4H7C6.20435 4 5.44129 4.31607 4.87868 4.87868C4.31607 5.44129 4 6.20435 4 7V19C4 19.7957 4.31607 20.5587 4.87868 21.1213C5.44129 21.6839 6.20435 22 7 22H17C17.7957 22 18.5587 21.6839 19.1213 21.1213C19.6839 20.5587 20 19.7957 20 19V7C20 6.20435 19.6839 5.44129 19.1213 4.87868C18.5587 4.31607 17.7956 4 17 4H15.8284C15.6807 3.5821 15.4407 3.19808 15.1213 2.87868C14.5587 2.31607 13.7956 2 13 2H11ZM10.2929 4.29289C10.4804 4.10536 10.7348 4 11 4H13C13.2652 4 13.5196 4.10536 13.7071 4.29289C13.8946 4.48043 14 4.73478 14 5C14 5.26522 13.8946 5.51957 13.7071 5.70711C13.5196 5.89464 13.2652 6 13 6H11C10.7348 6 10.4804 5.89464 10.2929 5.70711C10.1054 5.51957 10 5.26522 10 5C10 4.73478 10.1054 4.48043 10.2929 4.29289ZM7 6H8.17157C8.31933 6.4179 8.55928 6.80192 8.87868 7.12132C9.44129 7.68393 10.2044 8 11 8H13C13.7956 8 14.5587 7.68393 15.1213 7.12132C15.4407 6.80192 15.6807 6.4179 15.8284 6H17C17.2652 6 17.5196 6.10536 17.7071 6.29289C17.8946 6.48043 18 6.73478 18 7V19C18 19.2652 17.8946 19.5196 17.7071 19.7071C17.5196 19.8946 17.2652 20 17 20H7C6.73478 20 6.48043 19.8946 6.29289 19.7071C6.10536 19.5196 6 19.2652 6 19V7C6 6.73478 6.10536 6.48043 6.29289 6.29289C6.48043 6.10536 6.73478 6 7 6Z" fill="inherit"></path></svg>