<svg width="24" height="24" stroke-width="0" viewBox="0 0 24 24" fill="current" xmlns="http://www.w3.org/2000/svg" class=""><path d="M7 6C6.44772 6 6 6.44772 6 7C6 7.55228 6.44772 8 7 8H7.01C7.56229 8 8.01 7.55228 8.01 7C8.01 6.44772 7.56229 6 7.01 6H7Z" fill="inherit"></path><path fill-rule="evenodd" clip-rule="evenodd" d="M7 2C5.67392 2 4.40215 2.52678 3.46447 3.46447C2.52679 4.40215 2 5.67392 2 7V11.9995C1.99967 12.3938 2.07719 12.7841 2.22812 13.1483C2.37902 13.5124 2.60087 13.8437 2.87988 14.1221L9.879 21.1212C10.4416 21.6836 11.2045 21.9996 12 21.9996C12.7955 21.9996 13.5585 21.6835 14.1211 21.1211L21.1212 14.121C21.6836 13.5584 21.9996 12.7955 21.9996 12C21.9996 11.2045 21.6835 10.4415 21.1211 9.87889L14.1218 2.87954C13.536 2.29243 12.7657 2 12 2H7ZM4.87868 4.87868C5.44129 4.31607 6.20435 4 7 4H12C12.2581 4 12.5118 4.09749 12.706 4.2922L19.7069 11.2931C19.8943 11.4806 19.9996 11.7349 19.9996 12C19.9996 12.2651 19.8942 12.5195 19.7068 12.707L12.7069 19.7069C12.5194 19.8943 12.2651 19.9996 12 19.9996C11.7349 19.9996 11.4805 19.8942 11.293 19.7068L4.29311 12.7069L4.29212 12.7059C4.1994 12.6134 4.12587 12.5036 4.07574 12.3826C4.0256 12.2617 3.99987 12.132 4 12.001L4 7C4 6.20435 4.31607 5.44129 4.87868 4.87868Z" fill="inherit"></path></svg>