<svg width="24" height="24" stroke-width="0" viewBox="0 0 24 24" fill="current" xmlns="http://www.w3.org/2000/svg" type="solid" class=""><path fill-rule="evenodd" clip-rule="evenodd" d="M7 2C4.23858 2 2 4.23858 2 7V17C2 19.7614 4.23858 22 7 22H17C19.7614 22 22 19.7614 22 17V7C22 4.23858 19.7614 2 17 2H7ZM8.45339 8.46555C8.8459 8.07305 9.48227 8.07305 9.87477 8.46555L11.9961 10.5796L14.1102 8.45839C14.5028 8.06588 15.1391 8.06588 15.5316 8.45839C15.9241 8.85089 15.9241 9.48726 15.5316 9.87977L13.4175 12.001L15.528 14.1188C15.9205 14.5113 15.9205 15.1477 15.528 15.5402C15.1355 15.9327 14.4992 15.9327 14.1067 15.5402L11.9961 13.4224L9.8819 15.5366C9.4894 15.9291 8.85302 15.9291 8.46052 15.5366C8.06802 15.1441 8.06802 14.5077 8.46052 14.1152L10.5747 12.001L8.45339 9.88693C8.06089 9.49443 8.06089 8.85806 8.45339 8.46555Z" fill="inherit"></path></svg>